<svg xmlns="http://www.w3.org/2000/svg" id="Capa_1" data-name="Capa 1" viewBox="0 0 427.57 427.57"><defs><style>.cls-1{fill:#0081c8;stroke:#00a688;stroke-miterlimit:10;stroke-width:0.3px;}</style></defs><title>isotipoooo cifrado</title><path class="cls-1" d="M234.64,54C116.65,54,21,149.65,21,267.64a212.82,212.82,0,0,0,19.43,89L234.8,162.28l-.16,50.38-176,176a214.28,214.28,0,0,0,25.49,30.53L341,162.28l.12,50.1L111.43,442.11a212.78,212.78,0,0,0,35.86,20.48l167.3-167.3.09,50.13L184.74,475.36a214.21,214.21,0,0,0,49.9,5.92c118,0,213.64-95.65,213.64-213.64S352.63,54,234.64,54Z" transform="translate(-20.85 -53.85)"></path></svg>